<?xml version="1.0" encoding="UTF-8"?><svg xmlns="http://www.w3.org/2000/svg" viewBox="0 0 216.82 163.97"><defs><style>.d,.e{fill:#ff8e00;}.f{fill:#5d1201;}.g{fill:#5f1100;}.e,.h{stroke-miterlimit:10;}.e,.h,.i{stroke:#5f1100;stroke-width:10px;}.h,.i{fill:#00b4ff;}.i{stroke-linecap:round;stroke-linejoin:round;}</style></defs><g id="a"/><g id="b"><g id="c"><g><g><path class="d" d="M28.87,76.61c-2.66-.69-4.6-2.81-4.95-5.4-.34-2.55,.94-5.05,3.25-6.37l21.73-12.41,7.25,31.22-27.29-7.04Z"/><path class="g" d="M45.56,60.1l3.87,16.65-19.3-4.98c-1.43-.37-1.71-1.88-.47-2.59l15.9-9.08m6.7-15.34l-11.66,6.66-15.9,9.08c-4.09,2.34-6.34,6.8-5.73,11.38,.62,4.62,4.02,8.38,8.66,9.58l19.3,4.98,15.97,4.12-3.73-16.06-3.87-16.65-3.04-13.08h0Z"/></g><path class="i" d="M109.44,79.24l102.38,56.47s-74.16,51.41-115.44,1.38c-11.33-13.73-19.74-34.06-15.98-43.46,5.73-14.34,29.04-14.39,29.04-14.39Z"/><circle class="h" cx="81.35" cy="60.54" r="31.43"/><ellipse class="f" cx="74.75" cy="54.33" rx="5.37" ry="7.16"/><g><path class="e" d="M93.34,45.5c-27.06-19.86-37.8-17.8-39.03-21.78-1.55-4.97,13.94-3.66,17.83-3.74,3.88-.08,8.22-6.12,17.58-8.03,9.05-1.85,19.13,1.7,23.44,4.85l.04,.03c4.3,3.16,10.85,11.82,12.12,21.24,1.31,9.74-2.8,15.95-1.61,19.76,1.2,3.81,7.47,18.47,2.41,18.59-4.05,.1-5.67-11.04-32.74-30.9l-.04-.03Z"/><path class="e" d="M127.82,21.17s-5.6-4.88-17.5-5.88"/><path class="e" d="M104.79,4.26s6.3,3.86,11.12,15.12"/></g><path class="i" d="M103.19,84.27c1.98-.72,84.69-41.13,84.69-41.13,0,0,16.22,52.03-54.36,72.06"/><g><path class="e" d="M5,105.63h27.15v13.45c0,7.49-6.08,13.58-13.58,13.58h0c-7.49,0-13.58-6.08-13.58-13.58v-13.45h0Z"/><path class="i" d="M32.15,105.63v-10.73c0-5.72,3.53-10.85,8.88-12.9h0"/></g></g></g></g></svg>