<svg  viewBox="0 0 24 24" fill="none" xmlns="http://www.w3.org/2000/svg">
<path d="M22.99 11.295L16.004 9.165L15.127 8.839L14.802 7.959L12.67 0.975C12.578 0.672 12.298 0.465 11.982 0.465C11.666 0.465 11.386 0.672 11.294 0.975L8.902 8.815L7.128 9.472L0.98 11.292C0.674 11.384 0.465 11.664 0.465 11.982C0.465 12.302 0.675 12.582 0.98 12.672L8.936 15.03L11.292 22.986C11.382 23.292 11.662 23.501 11.982 23.501C12.302 23.501 12.582 23.291 12.672 22.987L14.494 16.837L15.15 15.064L22.99 12.672C23.293 12.582 23.5 12.302 23.5 11.985C23.5 11.669 23.293 11.389 22.99 11.297V11.295Z" fill="#794BC4"/>
</svg>
